<svg data-v-0dd9719b="" version="1.0" xmlns="http://www.w3.org/2000/svg" xmlns:xlink="http://www.w3.org/1999/xlink" width="100%" height="100%" viewBox="0 0 340.000000 250.000000" preserveAspectRatio="xMidYMid meet" color-interpolation-filters="sRGB" style="margin: auto;"> <rect data-v-0dd9719b="" x="0" y="0" width="100%" height="100%" fill="#ffffff" fill-opacity="0" class="background"></rect> <rect data-v-0dd9719b="" x="0" y="0" width="100%" height="100%" fill="url(#watermark)" fill-opacity="1" class="watermarklayer"></rect> <g data-v-0dd9719b="" fill="#333" class="icon-text-wrapper icon-svg-group iconsvg" transform="translate(85.1599959731102,64.9607925415039)"><g class="iconsvg-imagesvg" transform="translate(54.840003967285156,0)"><g><rect fill="#333" fill-opacity="0" stroke-width="2" x="0" y="0" width="60" height="59.997600095996155" class="image-rect"></rect> <svg x="0" y="0" width="60" height="59.997600095996155" filtersec="colorsb2237505673" class="image-svg-svg primary" style="overflow: visible;"><svg xmlns="http://www.w3.org/2000/svg" viewBox="-0.002603809582069516 0.00358882499858737 99.99999237060547 99.9964828491211"><path d="M50 100a49.78 49.78 0 0 0 32.76-12.23h-9.83l-23.15-38-21.78 38H17.24A49.78 49.78 0 0 0 50 100z" fill="#0497d9"></path><path d="M50.22 12.23l40.31 67.05a50 50 0 1 0-80.92.2z" fill="#333"></path></svg></svg> <!----></g></g> <g transform="translate(0,66.99760437011719)" style="
    transform: translate(0, 266.9976);
"><g data-gra="path-name" fill-rule="" class="tp-name iconsvg-namesvg" transform="translate(0,0)"><g transform="scale(1)"><g><path d="M16.8 0L16.8-6.9 13.14-6.9 14.88-12 29.22-12 30.96-6.9 27.36-6.9 27.36 0 43.38 0 43.38-6.9 39.42-6.9 27.6-40.2 16.56-40.2 4.68-6.9 0.78-6.9 0.78 0ZM22.08-33L27.24-17.82 16.86-17.82ZM42.96-30.84L42.96-24.78 47.7-24.78 47.7-13.2C47.7-3.6 51.24 0.6 57.42 0.6 59.76 0.6 62.34 0.06 65.28-1.02L64.32-8.22C62.46-7.56 60.96-7.14 59.58-7.14 57.24-7.14 55.86-8.58 55.86-12.96L55.86-24.78 64.5-24.78 64.5-30.84 55.86-30.84 55.86-39.84 47.7-39.84 47.7-30.84ZM67.02-15.54C67.02-5.22 73.5 0.48 82.8 0.48 88.38 0.48 92.28-1.26 95.46-3.96L93.54-10.38C90.96-8.28 88.32-6.6 84.54-6.6 79.74-6.6 76.8-8.94 75.78-12.78L96.9-12.78C96.96-13.68 97.02-15.48 97.02-16.26 97.02-25.08 92.46-31.32 82.62-31.32 73.68-31.32 67.02-25.62 67.02-15.54ZM75.54-17.64C76.2-22.02 79.02-24.72 82.86-24.72 87.84-24.72 90.18-21.24 90.18-17.64ZM98.7-36.3L102.72-36.3 102.72-6.12 98.7-6.12 98.7 0 114.9 0 114.9-6.12 110.88-6.12 110.88-42.36 98.7-42.36ZM116.52-15.54C116.52-5.22 123 0.48 132.3 0.48 137.88 0.48 141.78-1.26 144.96-3.96L143.04-10.38C140.46-8.28 137.82-6.6 134.04-6.6 129.24-6.6 126.3-8.94 125.28-12.78L146.4-12.78C146.46-13.68 146.52-15.48 146.52-16.26 146.52-25.08 141.96-31.32 132.12-31.32 123.18-31.32 116.52-25.62 116.52-15.54ZM125.04-17.64C125.7-22.02 128.52-24.72 132.36-24.72 137.34-24.72 139.68-21.24 139.68-17.64ZM148.14-30.84L148.14-24.78 152.88-24.78 152.88-13.2C152.88-3.6 156.42 0.6 162.6 0.6 164.94 0.6 167.52 0.06 170.46-1.02L169.5-8.22C167.64-7.56 166.14-7.14 164.76-7.14 162.42-7.14 161.04-8.58 161.04-12.96L161.04-24.78 169.68-24.78 169.68-30.84 161.04-30.84 161.04-39.84 152.88-39.84 152.88-30.84Z" transform="translate(-0.7799999713897705, 42.36000061035156)"></path></g> <!----> <!----> <!----> <!----> <!----> <!----> <!----></g></g> </g></g></svg>